<svg width="24" height="24" viewBox="0 0 24 24" fill="none" xmlns="http://www.w3.org/2000/svg">
<path d="M19.5326 18.8198H4.46727C4.15836 18.8198 3.89697 19.0812 3.89697 19.3901C3.89697 19.699 4.15836 19.9604 4.46727 19.9604H19.5326C19.8415 19.9604 20.1029 19.699 20.1029 19.3901C20.1029 19.0812 19.8415 18.8198 19.5326 18.8198ZM3.92074 13.8297L3.89697 16.5149C3.89697 16.6574 3.9445 16.8238 4.06331 16.9188C4.18212 17.0139 4.3247 17.0851 4.46727 17.0851L7.15242 17.0614C7.29499 17.0614 7.43757 16.9901 7.55638 16.895L16.7762 7.67525C16.99 7.46139 16.99 7.08119 16.7762 6.86733L14.1148 4.20594C13.9009 3.99208 13.5207 3.99208 13.3069 4.20594L11.4534 6.05941L4.08707 13.4257C3.96826 13.5446 3.92074 13.6871 3.92074 13.8297ZM15.5643 7.27129L14.5188 8.31683L12.6653 6.46337L13.7108 5.41782L15.5643 7.27129ZM5.06133 14.0673L11.8574 7.27129L13.7108 9.12475L6.91479 15.9208H5.06133V14.0673Z" fill="#06004F"/>
</svg>
