<svg width="241" height="76" viewBox="0 0 241 76" fill="none" xmlns="http://www.w3.org/2000/svg">
<path d="M2 64.2025V52.2449H29.5024V3.61745C29.5024 3.61745 45.0462 -0.0218067 53.8162 3.61745C59.3658 5.92035 63.0421 7.94799 66.1723 12.7849C73.9106 24.7425 70.5372 35.9518 60.9907 43.476C52.1887 50.4136 32.2925 43.476 32.2925 43.476" stroke="white" stroke-width="2.7716" stroke-linecap="round"/>
<path d="M41.0614 45.8676L59.0898 72.9714L72.5497 59.4195" stroke="white" stroke-width="2.7716" stroke-linecap="round"/>
<path d="M113.813 47.8605C113.813 61.3078 105.385 71.5856 95.6677 71.5856C85.9505 71.5856 77.5228 61.3078 77.5228 47.8605C77.5228 34.4132 85.9505 24.1354 95.6677 24.1354C105.385 24.1354 113.813 34.4132 113.813 47.8605Z" stroke="white" stroke-width="2.7716"/>
<path d="M121.487 24.344C121.487 24.344 119.893 45.8676 121.487 56.2308C123.081 66.5941 128.661 70.1814 131.053 71.3771C133.445 72.5729 143.807 74.5658 148.989 71.3771C154.171 68.1884 156.961 64.2026 158.556 56.2308C160.15 48.2591 158.556 24.344 158.556 24.344" stroke="white" stroke-width="2.7716" stroke-linecap="round"/>
<path d="M165.597 2.02313C165.597 2.02313 165.199 59.0209 165.597 61.4125C165.996 63.804 170.779 68.1884 172.373 69.3842C173.968 70.5799 177.499 72.6283 181.142 72.5729C184.64 72.5197 186.687 71.4456 189.513 69.3842C192.656 67.0908 194.099 65.0463 195.491 61.4125C196.343 59.189 196.618 57.8138 196.687 55.4337" stroke="white" stroke-width="2.7716" stroke-linecap="round"/>
<path d="M166.616 25.1411H197.307" stroke="white" stroke-width="2.7716" stroke-linecap="round"/>
<path d="M238.998 56.8728C238.998 56.8728 236.687 64.0047 233.418 67.236C230.493 70.127 228.296 71.6795 224.251 72.4176C220.547 73.0934 218.166 72.6553 214.684 71.2219C212.09 70.1534 210.716 69.1939 208.706 67.236C205.413 64.029 204.38 61.2947 203.125 56.8728C202.142 53.409 202.143 47.7053 202.143 47.7053M202.143 47.7053C202.143 47.7053 202.024 45.2902 202.143 44.5166C203.125 38.1392 207.908 31.3633 207.908 31.3633C207.908 31.3633 210.699 27.312 214.684 26.1816C217.53 25.3748 221.353 24.7894 224.251 25.3845C228.206 26.197 230.441 27.4394 233.418 30.1675C235.411 31.9937 237.163 34.6138 238.201 38.5378C239.077 41.8483 238.998 47.7053 238.998 47.7053H202.143Z" stroke="white" stroke-width="2.7716" stroke-linecap="round"/>
</svg>
